<svg width="136" height="136" viewBox="0 0 136 136" fill="none" xmlns="http://www.w3.org/2000/svg">
<g filter="url(#filter0_d_9901_2)">
<rect width="128" height="128" transform="translate(4)" fill="#00BFA6"/>
<path d="M68.0716 64.6612C59.1747 64.6612 51.9364 57.864 51.9364 49.5089C51.9364 41.154 59.1747 34.3568 68.0716 34.3568C76.9685 34.3568 84.2068 41.154 84.2068 49.5089C84.2068 57.864 76.9685 64.6612 68.0716 64.6612ZM68.0716 38.1854C61.5626 38.1854 56.2672 43.265 56.2672 49.5089C56.2672 55.7527 61.5626 60.8326 68.0716 60.8326C74.5806 60.8326 79.876 55.7527 79.876 49.5089C79.876 43.265 74.5806 38.1854 68.0716 38.1854Z" fill="#00BFA6"/>
<path d="M68.1073 64.2998C59.1907 64.2998 51.9364 57.2793 51.9364 48.6498C51.9364 40.0205 59.1907 33 68.1073 33C77.0239 33 84.2782 40.0205 84.2782 48.6498C84.2782 57.2793 77.0239 64.2998 68.1073 64.2998ZM68.1073 36.9543C61.5839 36.9543 56.2768 42.2008 56.2768 48.6498C56.2768 55.0987 61.5839 60.3455 68.1073 60.3455C74.6306 60.3455 79.9378 55.0987 79.9378 48.6498C79.9378 42.2008 74.6306 36.9543 68.1073 36.9543Z" fill="white"/>
<path d="M83.8132 95.0001H53.1868C50.486 94.9973 47.8967 94.0187 45.987 92.2788C44.0773 90.539 43.003 88.1801 43 85.7196V58.3507C43.0021 56.6661 43.7375 55.0511 45.045 53.86C46.3524 52.6688 48.1251 51.9988 49.9741 51.9968H87.0259C88.8749 51.9988 90.6476 52.6688 91.955 53.86C93.2625 55.0511 93.9979 56.6661 94 58.3507V85.7196C93.997 88.1801 92.9228 90.539 91.013 92.2788C89.1033 94.0187 86.514 94.9973 83.8132 95.0001V95.0001Z" fill="white"/>
<path d="M74.2984 70.1027C74.2992 69.1361 74.0172 68.1869 73.4815 67.3526C72.9457 66.5184 72.1755 65.8294 71.2503 65.3565C70.325 64.8836 69.2781 64.644 68.2174 64.6623C67.1567 64.6806 66.1205 64.9561 65.2155 65.4606C64.3106 65.965 63.5696 66.6801 63.0689 67.5322C62.5681 68.3843 62.3257 69.3426 62.3667 70.3084C62.4076 71.2742 62.7304 72.2126 63.3018 73.027C63.8732 73.8413 64.6726 74.5022 65.6175 74.9415V83.4485H71.0431V74.9415C72.0226 74.4867 72.845 73.7941 73.4195 72.9402C73.994 72.0862 74.2981 71.1042 74.2984 70.1027V70.1027Z" fill="#2F2E41"/>
<path d="M74.2984 70.1027C74.2992 69.1361 74.0172 68.1869 73.4815 67.3526C72.9457 66.5184 72.1755 65.8294 71.2503 65.3565C70.325 64.8836 69.2781 64.644 68.2174 64.6623C67.1567 64.6806 66.1205 64.9561 65.2155 65.4606C64.3106 65.965 63.5696 66.6801 63.0689 67.5322C62.5681 68.3843 62.3257 69.3426 62.3667 70.3084C62.4076 71.2742 62.7304 72.2126 63.3018 73.027C63.8732 73.8413 64.6726 74.5022 65.6175 74.9415V83.4485H71.0431V74.9415C72.0226 74.4867 72.845 73.7941 73.4195 72.9402C73.994 72.0862 74.2981 71.1042 74.2984 70.1027V70.1027Z" fill="#2F2E41"/>
</g>
<defs>
<filter id="filter0_d_9901_2" x="0" y="0" width="136" height="136" filterUnits="userSpaceOnUse" color-interpolation-filters="sRGB">
<feFlood flood-opacity="0" result="BackgroundImageFix"/>
<feColorMatrix in="SourceAlpha" type="matrix" values="0 0 0 0 0 0 0 0 0 0 0 0 0 0 0 0 0 0 127 0" result="hardAlpha"/>
<feOffset dy="4"/>
<feGaussianBlur stdDeviation="2"/>
<feComposite in2="hardAlpha" operator="out"/>
<feColorMatrix type="matrix" values="0 0 0 0 0 0 0 0 0 0 0 0 0 0 0 0 0 0 0.25 0"/>
<feBlend mode="normal" in2="BackgroundImageFix" result="effect1_dropShadow_9901_2"/>
<feBlend mode="normal" in="SourceGraphic" in2="effect1_dropShadow_9901_2" result="shape"/>
</filter>
</defs>
</svg>
