<svg width="138" height="24" viewBox="0 0 138 24" fill="none" xmlns="http://www.w3.org/2000/svg">
<path d="M39.8328 23.24C38.1528 23.24 36.8328 22.776 35.8728 21.848C34.9128 20.904 34.4328 19.624 34.4328 18.008V9.8H37.4328V17.984C37.4328 18.832 37.6408 19.488 38.0568 19.952C38.4728 20.4 39.0648 20.624 39.8328 20.624C40.5848 20.624 41.1688 20.4 41.5848 19.952C42.0168 19.488 42.2328 18.832 42.2328 17.984V9.8H45.2328V18.008C45.2328 19.624 44.7448 20.904 43.7688 21.848C42.7928 22.776 41.4808 23.24 39.8328 23.24ZM49.2794 23V9.8H52.1114V12.32H52.8554L51.9674 13.856C51.9674 12.432 52.2874 11.36 52.9274 10.64C53.5674 9.92 54.5114 9.56 55.7594 9.56C57.1834 9.56 58.3034 10 59.1194 10.88C59.9354 11.76 60.3434 12.976 60.3434 14.528V15.488H57.1994V14.744C57.1994 13.896 56.9754 13.24 56.5274 12.776C56.0954 12.312 55.4954 12.08 54.7274 12.08C53.9434 12.08 53.3354 12.312 52.9034 12.776C52.4874 13.24 52.2794 13.896 52.2794 14.744V23H49.2794ZM83.0527 23.24C81.8527 23.24 80.8127 23.04 79.9327 22.64C79.0527 22.24 78.3727 21.672 77.8927 20.936C77.4287 20.184 77.1887 19.304 77.1727 18.296H80.1727C80.1727 19.016 80.4287 19.584 80.9407 20C81.4687 20.4 82.1807 20.6 83.0767 20.6C83.9407 20.6 84.6127 20.4 85.0927 20C85.5887 19.6 85.8367 19.048 85.8367 18.344C85.8367 17.752 85.6607 17.24 85.3087 16.808C84.9727 16.36 84.4847 16.056 83.8447 15.896L81.8287 15.344C80.4527 14.992 79.3887 14.36 78.6367 13.448C77.9007 12.536 77.5327 11.432 77.5327 10.136C77.5327 9.144 77.7567 8.28 78.2047 7.544C78.6527 6.808 79.2847 6.24 80.1007 5.84C80.9327 5.44 81.9087 5.24 83.0287 5.24C84.7247 5.24 86.0687 5.68 87.0607 6.56C88.0527 7.424 88.5567 8.592 88.5727 10.064H85.5727C85.5727 9.376 85.3487 8.84 84.9007 8.456C84.4527 8.056 83.8207 7.856 83.0047 7.856C82.2207 7.856 81.6127 8.04 81.1807 8.408C80.7487 8.776 80.5327 9.296 80.5327 9.968C80.5327 10.576 80.6927 11.096 81.0127 11.528C81.3487 11.944 81.8287 12.24 82.4527 12.416L84.5407 12.992C85.9327 13.344 86.9967 13.976 87.7327 14.888C88.4687 15.784 88.8367 16.896 88.8367 18.224C88.8367 19.216 88.5967 20.096 88.1167 20.864C87.6367 21.616 86.9647 22.2 86.1007 22.616C85.2367 23.032 84.2207 23.24 83.0527 23.24ZM97.4193 23.24C96.2993 23.24 95.3233 23.024 94.4913 22.592C93.6593 22.16 93.0113 21.56 92.5473 20.792C92.0993 20.008 91.8753 19.096 91.8753 18.056V14.744C91.8753 13.704 92.0993 12.8 92.5473 12.032C93.0113 11.248 93.6593 10.64 94.4913 10.208C95.3233 9.776 96.2993 9.56 97.4193 9.56C98.5233 9.56 99.4833 9.776 100.299 10.208C101.131 10.64 101.771 11.248 102.219 12.032C102.683 12.8 102.915 13.704 102.915 14.744V17.12H94.7793V18.056C94.7793 18.984 95.0033 19.688 95.4513 20.168C95.8993 20.632 96.5633 20.864 97.4433 20.864C98.1153 20.864 98.6593 20.752 99.0753 20.528C99.4913 20.288 99.7553 19.944 99.8673 19.496H102.819C102.595 20.632 101.987 21.544 100.995 22.232C100.019 22.904 98.8273 23.24 97.4193 23.24ZM100.011 15.44V14.72C100.011 13.808 99.7953 13.112 99.3633 12.632C98.9313 12.136 98.2833 11.888 97.4193 11.888C96.5553 11.888 95.8993 12.136 95.4513 12.632C95.0033 13.128 94.7793 13.832 94.7793 14.744V15.248L100.227 15.2L100.011 15.44ZM111.858 23.24C110.738 23.24 109.754 23.032 108.906 22.616C108.074 22.184 107.426 21.584 106.962 20.816C106.498 20.032 106.266 19.112 106.266 18.056V14.744C106.266 13.672 106.498 12.752 106.962 11.984C107.426 11.216 108.074 10.624 108.906 10.208C109.754 9.776 110.738 9.56 111.858 9.56C113.522 9.56 114.85 9.992 115.842 10.856C116.834 11.704 117.354 12.864 117.402 14.336H114.402C114.354 13.648 114.106 13.12 113.658 12.752C113.226 12.368 112.626 12.176 111.858 12.176C111.058 12.176 110.426 12.4 109.962 12.848C109.498 13.28 109.266 13.904 109.266 14.72V18.056C109.266 18.872 109.498 19.504 109.962 19.952C110.426 20.4 111.058 20.624 111.858 20.624C112.626 20.624 113.226 20.44 113.658 20.072C114.106 19.688 114.354 19.152 114.402 18.464H117.402C117.354 19.936 116.834 21.104 115.842 21.968C114.85 22.816 113.522 23.24 111.858 23.24ZM127.617 23C126.353 23 125.361 22.648 124.641 21.944C123.937 21.24 123.585 20.272 123.585 19.04V12.512H120.009V9.8H123.585V6.08H126.609V9.8H131.673V12.512H126.609V19.04C126.609 19.872 127.017 20.288 127.833 20.288H131.433V23H127.617Z" fill="white"/>
<path d="M24.4611 15.1706C22.1683 15.1706 20.303 13.4165 20.303 11.2604C20.303 9.10427 22.1683 7.35016 24.4611 7.35016C26.7538 7.35016 28.6192 9.10427 28.6192 11.2604C28.6192 13.4165 26.7538 15.1706 24.4611 15.1706ZM24.4611 8.33817C22.7837 8.33817 21.419 9.64905 21.419 11.2604C21.419 12.8717 22.7837 14.1826 24.4611 14.1826C26.1384 14.1826 27.5031 12.8717 27.5031 11.2604C27.5031 9.64905 26.1384 8.33817 24.4611 8.33817Z" fill="#00BFA6"/>
<path d="M24.4703 15.0774C22.1724 15.0774 20.303 13.2656 20.303 11.0387C20.303 8.81173 22.1724 7 24.4703 7C26.7681 7 28.6376 8.81173 28.6376 11.0387C28.6376 13.2656 26.7681 15.0774 24.4703 15.0774ZM24.4703 8.02047C22.7892 8.02047 21.4215 9.37441 21.4215 11.0387C21.4215 12.7029 22.7892 14.0569 24.4703 14.0569C26.1514 14.0569 27.519 12.7029 27.519 11.0387C27.519 9.37441 26.1514 8.02047 24.4703 8.02047Z" fill="#00BFA6"/>
<path d="M28.5177 23H20.6252C19.9292 22.9993 19.2619 22.7468 18.7698 22.2978C18.2776 21.8488 18.0008 21.24 18 20.605V13.5421C18.0005 13.1074 18.1901 12.6906 18.527 12.3832C18.8639 12.0758 19.3207 11.9029 19.7972 11.9024H29.3456C29.8221 11.9029 30.2789 12.0758 30.6159 12.3832C30.9528 12.6906 31.1423 13.1074 31.1429 13.5421V20.605C31.1421 21.24 30.8652 21.8488 30.3731 22.2978C29.881 22.7468 29.2137 22.9993 28.5177 23Z" fill="white"/>
<path d="M26.0657 16.5749C26.0659 16.3254 25.9932 16.0805 25.8551 15.8652C25.7171 15.6499 25.5186 15.4721 25.2802 15.3501C25.0417 15.228 24.7719 15.1662 24.4986 15.1709C24.2252 15.1756 23.9582 15.2467 23.725 15.3769C23.4918 15.5071 23.3008 15.6916 23.1718 15.9115C23.0427 16.1314 22.9803 16.3787 22.9908 16.628C23.0014 16.8772 23.0846 17.1194 23.2318 17.3295C23.3791 17.5397 23.5851 17.7102 23.8286 17.8236V20.0189H25.2268V17.8236C25.4792 17.7062 25.6911 17.5275 25.8392 17.3071C25.9872 17.0868 26.0656 16.8333 26.0657 16.5749Z" fill="white"/>
<path d="M26.0657 16.5749C26.0659 16.3254 25.9932 16.0805 25.8551 15.8652C25.7171 15.6499 25.5186 15.4721 25.2802 15.3501C25.0417 15.228 24.7719 15.1662 24.4986 15.1709C24.2252 15.1756 23.9582 15.2467 23.725 15.3769C23.4918 15.5071 23.3008 15.6916 23.1718 15.9115C23.0427 16.1314 22.9803 16.3787 22.9908 16.628C23.0014 16.8772 23.0846 17.1194 23.2318 17.3295C23.3791 17.5397 23.5851 17.7102 23.8286 17.8236V20.0189H25.2268V17.8236C25.4792 17.7062 25.6911 17.5275 25.8392 17.3071C25.9872 17.0868 26.0656 16.8333 26.0657 16.5749Z" fill="#2F2E41"/>
<path d="M7.52047 23V16.64L2.38447 5.48H5.52847L8.26447 11.552C8.47247 12.032 8.64847 12.504 8.79247 12.968C8.93647 13.432 9.03247 13.792 9.08047 14.048C9.14447 13.792 9.24047 13.432 9.36847 12.968C9.51247 12.504 9.68847 12.032 9.89647 11.552L12.5605 5.48H15.6805L10.5445 16.64V23H7.52047Z" fill="white"/>
</svg>
